<?xml version="1.0" encoding="UTF-8"?>
<svg viewBox="0 0 64 64" version="1.1" xmlns="http://www.w3.org/2000/svg" xmlns:xlink="http://www.w3.org/1999/xlink">
    <!-- Generator: Sketch 51.2 (57519) - http://www.bohemiancoding.com/sketch -->
    <title>Icons/list-view/outline</title>
    <desc>Created with Sketch.</desc>
    <defs>
        <path d="M13.1111111,50.3333333 C13.1111111,51.9903333 11.7681111,53.3333333 10.1111111,53.3333333 C8.45411111,53.3333333 7.11111111,51.9903333 7.11111111,50.3333333 C7.11111111,48.6763333 8.45411111,47.3333333 10.1111111,47.3333333 C11.7681111,47.3333333 13.1111111,48.6763333 13.1111111,50.3333333 M13.1111111,31.3333333 C13.1111111,32.9903333 11.7681111,34.3333333 10.1111111,34.3333333 C8.45411111,34.3333333 7.11111111,32.9903333 7.11111111,31.3333333 C7.11111111,29.6763333 8.45411111,28.3333333 10.1111111,28.3333333 C11.7681111,28.3333333 13.1111111,29.6763333 13.1111111,31.3333333 M13.1111111,12.3333333 C13.1111111,13.9903333 11.7681111,15.3333333 10.1111111,15.3333333 C8.45411111,15.3333333 7.11111111,13.9903333 7.11111111,12.3333333 C7.11111111,10.6763333 8.45411111,9.33333333 10.1111111,9.33333333 C11.7681111,9.33333333 13.1111111,10.6763333 13.1111111,12.3333333 M57.6211111,48.8333333 L20.6211111,48.8333333 C19.7931111,48.8333333 19.1211111,49.5053333 19.1211111,50.3333333 C19.1211111,51.1613333 19.7931111,51.8333333 20.6211111,51.8333333 L57.6211111,51.8333333 C58.4501111,51.8333333 59.1211111,51.1613333 59.1211111,50.3333333 C59.1211111,49.5053333 58.4501111,48.8333333 57.6211111,48.8333333 M20.6211111,13.8333333 L57.6211111,13.8333333 C58.4501111,13.8333333 59.1211111,13.1623333 59.1211111,12.3333333 C59.1211111,11.5043333 58.4501111,10.8333333 57.6211111,10.8333333 L20.6211111,10.8333333 C19.7931111,10.8333333 19.1211111,11.5043333 19.1211111,12.3333333 C19.1211111,13.1623333 19.7931111,13.8333333 20.6211111,13.8333333 M57.6211111,29.8333333 L20.6211111,29.8333333 C19.7931111,29.8333333 19.1211111,30.5043333 19.1211111,31.3333333 C19.1211111,32.1623333 19.7931111,32.8333333 20.6211111,32.8333333 L57.6211111,32.8333333 C58.4501111,32.8333333 59.1211111,32.1623333 59.1211111,31.3333333 C59.1211111,30.5043333 58.4501111,29.8333333 57.6211111,29.8333333" id="path-1"></path>
    </defs>
    <g id="Icons/list-view/outline" stroke="none" stroke-width="1" fill="none" fill-rule="evenodd">
        <mask id="mask-2" fill="white">
            <use xlink:href="#path-1"></use>
        </mask>
        <use id="Page-1" fill="#000000" xlink:href="#path-1"></use>
        <g id="Color/z-Print/Grey-038" mask="url(#mask-2)" fill="#262626">
            <rect id="Rectangle-2" x="0" y="0" width="64" height="64"></rect>
        </g>
    </g>
</svg>
